<svg xmlns="http://www.w3.org/2000/svg" viewBox="0 0 449.27 430.7"><path d="M651.27,570.46l-58.41-33c-11.15-8.26-35-9.53-35.72,9.16V625l-87.23-47.29V479.5L539,516.94c19.73,9.88,28-5,28-21.24V426l84.29,46.28Z" transform="translate(-460.43 -251.43)" style="fill:#3fb983;fill-rule:evenodd"/><path d="M651.27,585.44l-66.22-38.59c-10.9-6.18-20-.15-20,11v71.38l86.23,52.94Z" transform="translate(-460.43 -251.43)" style="fill:#36495e;fill-rule:evenodd"/><path d="M539.47,410.37l-79-44.07V463l61.14,32.37c13.32,6.21,18,2.64,17.9-16.79Z" transform="translate(-460.43 -251.43)" style="fill:#3fb983;fill-rule:evenodd"/><path d="M539.47,410.37l-79-44.07,74.14-45,62,35.7c7.37,4.66,6.13,10.31-2.12,16.25Z" transform="translate(-460.43 -251.43)" style="fill:#36495e;fill-rule:evenodd"/><path d="M651.27,251.43,737,311.5l-65.32,37.12c-12.53,5.89-16.54,21.85.67,32.92L735.56,426,651.27,472.3,567,426l63.18-44.48c17.21-11.07,13.2-27,.66-32.92L565.5,311.5Z" transform="translate(-460.43 -251.43)" style="fill:#36495e;fill-rule:evenodd"/><path d="M651.27,570.46l58.41-33c11.14-8.26,35-9.53,35.72,9.16V625l87.23-47.29V479.5l-69.07,37.44c-19.73,9.88-28-5-28-21.24V426L651.27,472.3Z" transform="translate(-460.43 -251.43)" style="fill:#3fb983;fill-rule:evenodd"/><path d="M651.27,585.44l66.22-38.59c10.9-6.18,20-.15,20,11v71.38l-86.23,52.94Z" transform="translate(-460.43 -251.43)" style="fill:#36495e;fill-rule:evenodd"/><path d="M830.67,363.05l79-44.07v96.7l-61.14,32.38c-13.31,6.2-18,2.63-17.89-16.8Z" transform="translate(-460.43 -251.43)" style="fill:#36495e;fill-rule:evenodd"/><path d="M830.67,363.05l79-44.07-74.13-45-62,35.71c-7.37,4.65-6.13,10.3,2.12,16.24Z" transform="translate(-460.43 -251.43)" style="fill:#3fb983;fill-rule:evenodd"/></svg>
